
      <svg xmlns="http://www.w3.org/2000/svg" width="269px" height="269px">
        <!-- Background with border-radius -->
        <rect x="0" y="0" width="269" height="269" rx="156" ry="156" fill="none" />
        <!-- Icon with applied transformations -->
        <g transform="translate(2, 2) scale(2.65) rotate(0, 50, 50) skewX(0) skewY(0)">
          
            <path d="M50,20 L30,50 M50,20 L70,50 M30,50 L20,80 M30,50 L40,80 M70,50 L60,80 M70,50 L80,80" fill="#184ae4" stroke="#000000" stroke-width="0.2" />
          
          
            <circle cx="50" cy="20" r="5" 
                    fill="#184ae4" stroke="#000000" stroke-width="0.2" />
          
            <circle cx="30" cy="50" r="5" 
                    fill="#184ae4" stroke="#000000" stroke-width="0.2" />
          
            <circle cx="70" cy="50" r="5" 
                    fill="#184ae4" stroke="#000000" stroke-width="0.2" />
          
            <circle cx="20" cy="80" r="5" 
                    fill="#184ae4" stroke="#000000" stroke-width="0.2" />
          
            <circle cx="40" cy="80" r="5" 
                    fill="#184ae4" stroke="#000000" stroke-width="0.2" />
          
            <circle cx="60" cy="80" r="5" 
                    fill="#184ae4" stroke="#000000" stroke-width="0.2" />
          
            <circle cx="80" cy="80" r="5" 
                    fill="#184ae4" stroke="#000000" stroke-width="0.2" />
          
        </g>
      </svg>
    