<svg width="200" height="200" viewBox="0 0 200 200" xmlns="http://www.w3.org/2000/svg" fill="none" stroke="currentColor">
  <!-- Root node -->
  <circle cx="100" cy="30" r="15" fill="#e0e0e0" stroke="#333"/>
  <text x="100" y="35" font-size="12" text-anchor="middle" fill="#333">8</text>
  
  <!-- Left child of root -->
  <circle cx="50" cy="80" r="15" fill="#e0e0e0" stroke="#333"/>
  <text x="50" y="85" font-size="12" text-anchor="middle" fill="#333">3</text>
  
  <!-- Right child of root -->
  <circle cx="150" cy="80" r="15" fill="#e0e0e0" stroke="#333"/>
  <text x="150" y="85" font-size="12" text-anchor="middle" fill="#333">10</text>
  
  <!-- Left child of left child -->
  <circle cx="30" cy="130" r="15" fill="#e0e0e0" stroke="#333"/>
  <text x="30" y="135" font-size="12" text-anchor="middle" fill="#333">1</text>
  
  <!-- Right child of left child -->
  <circle cx="70" cy="130" r="15" fill="#e0e0e0" stroke="#333"/>
  <text x="70" y="135" font-size="12" text-anchor="middle" fill="#333">6</text>
  
  <!-- Left child of right child -->
  <circle cx="130" cy="130" r="15" fill="#e0e0e0" stroke="#333"/>
  <text x="130" y="135" font-size="12" text-anchor="middle" fill="#333">9</text>
  
  <!-- Right child of right child -->
  <circle cx="170" cy="130" r="15" fill="#e0e0e0" stroke="#333"/>
  <text x="170" y="135" font-size="12" text-anchor="middle" fill="#333">14</text>
  
  <!-- Lines connecting nodes -->
  <line x1="100" y1="45" x2="50" y2="65" stroke="#333"/>
  <line x1="100" y1="45" x2="150" y2="65" stroke="#333"/>
  <line x1="50" y1="95" x2="30" y2="115" stroke="#333"/>
  <line x1="50" y1="95" x2="70" y2="115" stroke="#333"/>
  <line x1="150" y1="95" x2="130" y2="115" stroke="#333"/>
  <line x1="150" y1="95" x2="170" y2="115" stroke="#333"/>
</svg>
