<svg width="390" height="390" viewBox="0 0 390 390" fill="none" xmlns="http://www.w3.org/2000/svg">
<path d="M215.514 338.529C215.265 338.529 215.016 338.463 214.793 338.333L93.9319 267.236C93.5891 267.036 93.3479 266.701 93.2641 266.312C93.1803 265.924 93.2616 265.52 93.4901 265.195L190.834 126.862C191.286 126.22 192.172 126.065 192.815 126.517C193.457 126.969 193.612 127.855 193.16 128.497L96.7064 265.569L214.22 334.697L218.036 264.074C218.079 263.29 218.739 262.695 219.532 262.731C220.316 262.774 220.915 263.444 220.875 264.226L216.932 337.182C216.904 337.678 216.622 338.124 216.183 338.358C215.974 338.472 215.743 338.528 215.512 338.528L215.514 338.529ZM220.61 244.279C220.584 244.279 220.559 244.279 220.531 244.276C219.747 244.233 219.147 243.563 219.188 242.781L228.044 78.9353L205.434 111.065C204.982 111.707 204.096 111.862 203.454 111.41C202.811 110.958 202.656 110.072 203.108 109.43L228.57 73.2506C228.936 72.7327 229.598 72.5169 230.198 72.7251C230.797 72.9333 231.185 73.5122 231.152 74.1444L222.027 242.936C221.986 243.693 221.359 244.28 220.61 244.28L220.61 244.279Z" fill="#333333"/>
<path d="M329.264 267.432H249.555C248.77 267.432 248.133 266.795 248.133 266.01C248.133 265.225 248.77 264.588 249.555 264.588H327.022L271.66 146.945L113.255 207.029C112.518 207.309 111.698 206.938 111.422 206.204C111.142 205.47 111.513 204.648 112.247 204.371L271.887 143.82C272.58 143.558 273.359 143.87 273.677 144.543L330.552 265.404C330.76 265.844 330.727 266.362 330.465 266.773C330.206 267.184 329.754 267.433 329.267 267.433L329.264 267.432ZM228.228 267.432H94.653C94.1782 267.432 93.7339 267.193 93.4698 266.8L65.0323 224.143C64.7911 223.783 64.7302 223.333 64.8622 222.92C64.9942 222.508 65.3065 222.178 65.7128 222.023L92.3069 211.935C93.0432 211.656 93.8633 212.027 94.1401 212.761C94.4194 213.494 94.0487 214.317 93.3149 214.594L68.3887 224.047L95.4144 264.588H228.229C229.013 264.588 229.651 265.225 229.651 266.01C229.648 266.794 229.011 267.432 228.226 267.432L228.228 267.432Z" fill="#333333"/>
<path d="M66.2152 224.779C65.8801 224.779 65.5475 224.66 65.2834 224.431C64.8873 224.091 64.7121 223.558 64.8264 223.047L93.2639 95.0752C93.3477 94.6943 93.5863 94.3642 93.9215 94.1637C94.2566 93.9632 94.6603 93.9098 95.0336 94.0139L159.501 112.064C160.257 112.275 160.699 113.06 160.486 113.816C160.275 114.573 159.488 115.015 158.734 114.801L95.7117 97.1553L68.1706 221.084L142.557 192.87C143.29 192.591 144.113 192.962 144.39 193.696C144.669 194.429 144.298 195.252 143.565 195.529L66.7216 224.683C66.5565 224.743 66.3864 224.774 66.2163 224.774L66.2152 224.779ZM163.007 188.067C162.433 188.067 161.892 187.716 161.676 187.15C161.397 186.416 161.768 185.594 162.501 185.317L267.84 145.36L179.278 120.561C178.521 120.35 178.079 119.565 178.293 118.809C178.504 118.052 179.288 117.61 180.045 117.824L272.774 143.788C273.365 143.953 273.784 144.479 273.812 145.093C273.84 145.707 273.469 146.269 272.896 146.487L163.514 187.978C163.343 188.036 163.171 188.067 163.006 188.067L163.007 188.067Z" fill="#333333"/>
<path d="M322.153 345.64C313.528 345.64 306.513 338.625 306.513 330C306.513 321.375 313.528 314.359 322.153 314.359C330.778 314.359 337.793 321.375 337.793 330C337.793 338.625 330.778 345.64 322.153 345.64ZM322.153 317.202C315.097 317.202 309.356 322.943 309.356 330C309.356 337.056 315.097 342.797 322.153 342.797C329.209 342.797 334.95 337.056 334.95 330C334.95 322.943 329.209 317.202 322.153 317.202Z" fill="#333333"/>
<path d="M151.528 75.4806C142.903 75.4806 135.888 68.4651 135.888 59.8403C135.888 51.2154 142.903 44.2 151.528 44.2C160.153 44.2 167.168 51.2154 167.168 59.8403C167.168 68.4651 160.153 75.4806 151.528 75.4806ZM151.528 47.0431C144.472 47.0431 138.731 52.7839 138.731 59.8403C138.731 66.8967 144.472 72.6374 151.528 72.6374C158.584 72.6374 164.325 66.8967 164.325 59.8403C164.325 52.7839 158.584 47.0431 151.528 47.0431Z" fill="#333333"/>
<path d="M286.604 246.106C286.229 246.106 285.866 245.948 285.594 245.687C285.33 245.423 285.183 245.055 285.183 244.684C285.183 244.305 285.332 243.937 285.594 243.673C286.127 243.148 287.079 243.148 287.605 243.673C287.874 243.942 288.024 244.305 288.024 244.684C288.024 245.054 287.874 245.423 287.605 245.687C287.343 245.948 286.98 246.106 286.604 246.106Z" fill="#333333"/>
<path d="M265.278 246.106C264.902 246.106 264.539 245.948 264.275 245.687C264.006 245.423 263.856 245.055 263.856 244.684C263.856 244.305 264.006 243.937 264.275 243.673C264.793 243.148 265.753 243.148 266.281 243.673C266.55 243.942 266.7 244.305 266.7 244.684C266.7 245.054 266.55 245.423 266.288 245.687C266.017 245.948 265.654 246.106 265.278 246.106H265.278Z" fill="#333333"/>
<path d="M243.951 246.106C243.575 246.106 243.212 245.948 242.941 245.687C242.677 245.423 242.529 245.055 242.529 244.684C242.529 244.305 242.679 243.945 242.941 243.673C243.474 243.148 244.426 243.148 244.952 243.673C245.221 243.942 245.371 244.305 245.371 244.684C245.371 245.054 245.221 245.423 244.959 245.687C244.69 245.948 244.327 246.106 243.951 246.106H243.951Z" fill="#333333"/>
<path d="M243.951 224.779C243.58 224.779 243.212 224.621 242.941 224.36C242.677 224.096 242.529 223.728 242.529 223.357C242.529 222.979 242.679 222.618 242.941 222.346C243.474 221.821 244.426 221.821 244.952 222.346C245.221 222.615 245.371 222.979 245.371 223.357C245.371 223.728 245.221 224.096 244.952 224.36C244.69 224.621 244.322 224.779 243.951 224.779Z" fill="#333333"/>
<path d="M243.951 203.452C243.575 203.452 243.212 203.295 242.948 203.033C242.679 202.769 242.529 202.401 242.529 202.03C242.529 201.652 242.679 201.292 242.941 201.02C243.474 200.494 244.426 200.494 244.952 201.02C245.221 201.289 245.371 201.652 245.371 202.03C245.371 202.401 245.221 202.769 244.959 203.033C244.69 203.295 244.327 203.452 243.951 203.452Z" fill="#333333"/>
<path d="M52 322.89H66.2188V337.109H52V322.89Z" fill="#333333"/>
<path d="M73.3267 322.89H87.5454V337.109H73.3267V322.89Z" fill="#333333"/>
<path d="M94.6533 322.89H108.872V337.109H94.6533V322.89Z" fill="#333333"/>
<path d="M115.979 322.89H130.198V337.109H115.979V322.89Z" fill="#333333"/>
</svg>
